<svg xmlns="http://www.w3.org/2000/svg" viewBox="0 0 256 256">
  <defs>
    <radialGradient id="bg" cx="50%" cy="45%" r="56%">
      <stop offset="0%" stop-color="#1e2f5e"/>
      <stop offset="100%" stop-color="#0d1220"/>
    </radialGradient>
    <linearGradient id="body" x1="0" y1="0" x2="1" y2="1">
      <stop offset="0%" stop-color="#2a4070"/>
      <stop offset="100%" stop-color="#0f2448"/>
    </linearGradient>
    <linearGradient id="bodyLight" x1="0" y1="0" x2="1" y2="0">
      <stop offset="0%" stop-color="#3a5080"/>
      <stop offset="60%" stop-color="#1a3060"/>
      <stop offset="100%" stop-color="#0f2448"/>
    </linearGradient>
    <linearGradient id="teal" x1="0" y1="0" x2="0" y2="1">
      <stop offset="0%" stop-color="#1fd6c0"/>
      <stop offset="100%" stop-color="#0a7a70"/>
    </linearGradient>
    <radialGradient id="lensG" cx="40%" cy="35%" r="55%">
      <stop offset="0%" stop-color="#40e8d4"/>
      <stop offset="100%" stop-color="#0f9b8e"/>
    </radialGradient>
    <radialGradient id="specimenG" cx="40%" cy="35%" r="55%">
      <stop offset="0%" stop-color="#ff8090"/>
      <stop offset="100%" stop-color="#c03048"/>
    </radialGradient>
    <filter id="sh" x="-15%" y="-15%" width="130%" height="130%">
      <feDropShadow dx="1" dy="3" stdDeviation="4" flood-color="#000" flood-opacity="0.55"/>
    </filter>
    <filter id="glow">
      <feGaussianBlur stdDeviation="2.5" result="b"/>
      <feMerge><feMergeNode in="b"/><feMergeNode in="SourceGraphic"/></feMerge>
    </filter>
    <filter id="softglow">
      <feGaussianBlur stdDeviation="4" result="b"/>
      <feMerge><feMergeNode in="b"/><feMergeNode in="SourceGraphic"/></feMerge>
    </filter>
  </defs>

  <!-- Rounded square background -->
  <rect width="256" height="256" rx="44" fill="url(#bg)"/>

  <!-- ══ BASE ══ -->
  <rect x="38" y="218" width="180" height="18" rx="7" fill="url(#body)" filter="url(#sh)"/>
  <!-- base top edge highlight -->
  <rect x="44" y="218" width="168" height="4" rx="3" fill="#3a5080" opacity="0.5"/>

  <!-- ══ REAR VERTICAL COLUMN / ARM ══
       The Nikon L200ND has a boxy arm rising from the right rear of the base -->
  <!-- Main arm column -->
  <rect x="148" y="68" width="42" height="154" rx="6" fill="url(#bodyLight)" filter="url(#sh)"/>
  <!-- arm left highlight stripe -->
  <rect x="150" y="72" width="7" height="146" rx="3" fill="#3a5280" opacity="0.45"/>
  <!-- arm right edge -->
  <rect x="183" y="72" width="5" height="146" rx="2" fill="#0a1a38" opacity="0.4"/>

  <!-- ══ HORIZONTAL BRIDGE (arm to head) ══ -->
  <rect x="82" y="68" width="76" height="30" rx="6" fill="url(#bodyLight)" filter="url(#sh)"/>
  <!-- bridge highlight -->
  <rect x="86" y="70" width="66" height="8" rx="3" fill="#3a5080" opacity="0.4"/>

  <!-- ══ HEAD BODY (boxy Nikon block) ══ -->
  <rect x="72" y="32" width="86" height="48" rx="8" fill="url(#bodyLight)" filter="url(#sh)"/>
  <!-- head top highlight -->
  <rect x="78" y="34" width="74" height="8" rx="4" fill="#3a5888" opacity="0.5"/>
  <!-- head left edge darker -->
  <rect x="72" y="36" width="8" height="40" rx="4" fill="#0e2040" opacity="0.35"/>
  <!-- trinocular port (top centre) -->
  <rect x="114" y="28" width="18" height="10" rx="4" fill="#0a1830" stroke="#0f9b8e" stroke-width="1.2"/>
  <ellipse cx="123" cy="28" rx="6" ry="3" fill="url(#lensG)" opacity="0.7" filter="url(#glow)"/>

  <!-- ══ BINOCULAR EYEPIECES ══
       Angled outward, as on the real scope -->
  <!-- Left eyepiece tube (angled ~-20 deg) -->
  <g transform="rotate(-22, 88, 42)">
    <rect x="70" y="28" width="16" height="30" rx="7" fill="url(#body)" filter="url(#sh)"/>
    <!-- eyepiece rim top -->
    <ellipse cx="78" cy="28" rx="8" ry="4" fill="#0d1828" stroke="#0f9b8e" stroke-width="1.5"/>
    <ellipse cx="78" cy="28" rx="5" ry="2.5" fill="url(#lensG)" filter="url(#glow)"/>
    <ellipse cx="76" cy="27" rx="1.5" ry="1" fill="#afffff" opacity="0.5"/>
  </g>
  <!-- Right eyepiece tube (angled +20 deg) -->
  <g transform="rotate(22, 142, 42)">
    <rect x="144" y="28" width="16" height="30" rx="7" fill="url(#body)" filter="url(#sh)"/>
    <ellipse cx="152" cy="28" rx="8" ry="4" fill="#0d1828" stroke="#0f9b8e" stroke-width="1.5"/>
    <ellipse cx="152" cy="28" rx="5" ry="2.5" fill="url(#lensG)" filter="url(#glow)"/>
    <ellipse cx="150" cy="27" rx="1.5" ry="1" fill="#afffff" opacity="0.5"/>
  </g>

  <!-- ══ ILLUMINATION ARM / LAMP HOUSING (left side of head) ══ -->
  <rect x="44" y="48" width="36" height="24" rx="6" fill="url(#body)" filter="url(#sh)"/>
  <rect x="44" y="52" width="36" height="8" rx="3" fill="#2a4070" opacity="0.5"/>
  <!-- lamp port -->
  <rect x="28" y="54" width="22" height="12" rx="5" fill="#0a1828" stroke="#3a5888" stroke-width="1"/>
  <ellipse cx="28" cy="60" rx="4" ry="6" fill="#e94560" opacity="0.7" filter="url(#glow)"/>

  <!-- ══ NOSEPIECE / REVOLVING TURRET (underneath head body) ══ -->
  <!-- The turret sits below the optical body, centred ~x=115 -->
  <ellipse cx="115" cy="130" rx="28" ry="10" fill="#0f2040" stroke="#2a4070" stroke-width="1.5" filter="url(#sh)"/>
  <ellipse cx="115" cy="130" rx="22" ry="7" fill="#162848"/>

  <!-- ══ OBJECTIVES pointing DOWN from turret ══ -->
  <!-- Longest (centre, in position) -->
  <rect x="109" y="130" width="12" height="34" rx="4" fill="url(#body)" stroke="#2a4070" stroke-width="1"/>
  <ellipse cx="115" cy="165" rx="8" ry="3.5" fill="url(#lensG)" filter="url(#glow)"/>
  <ellipse cx="113" cy="163" rx="2" ry="1.2" fill="#c0fff8" opacity="0.4"/>
  <!-- Short left -->
  <rect x="90" y="131" width="9" height="20" rx="3" fill="url(#body)" stroke="#2a4070" stroke-width="1"/>
  <ellipse cx="95" cy="152" rx="5" ry="2.5" fill="#0f9b8e" opacity="0.7"/>
  <!-- Short right -->
  <rect x="130" y="131" width="9" height="24" rx="3" fill="url(#body)" stroke="#2a4070" stroke-width="1"/>
  <ellipse cx="134" cy="156" rx="5" ry="2.5" fill="#0f9b8e" opacity="0.7"/>

  <!-- ══ STAGE (large flat platform, Nikon L200ND has a wide XY stage) ══ -->
  <!-- Stage plate -->
  <rect x="46" y="172" width="140" height="14" rx="5" fill="url(#bodyLight)" stroke="#2a4070" stroke-width="1.2" filter="url(#sh)"/>
  <!-- stage top surface highlight -->
  <rect x="52" y="173" width="128" height="5" rx="2" fill="#3a5888" opacity="0.35"/>
  <!-- Stage opening / specimen area -->
  <rect x="96" y="165" width="40" height="10" rx="2" fill="#0a1428" stroke="#2a4070" stroke-width="1"/>
  <!-- Specimen glow -->
  <ellipse cx="116" cy="170" rx="14" ry="4" fill="url(#specimenG)" opacity="0.8" filter="url(#softglow)"/>
  <ellipse cx="116" cy="170" rx="7" ry="2" fill="#ffc0c8" opacity="0.45"/>

  <!-- ══ COARSE FOCUS KNOBS (on column sides) ══ -->
  <!-- Left coarse knob -->
  <ellipse cx="148" cy="148" rx="7" ry="11" fill="#0f2040" stroke="#2a4070" stroke-width="1.5" filter="url(#sh)"/>
  <ellipse cx="148" cy="148" rx="4.5" ry="7.5" fill="#1a3060"/>
  <!-- knob grip lines -->
  <line x1="148" y1="140" x2="148" y2="156" stroke="#2a4888" stroke-width="0.8"/>
  <line x1="144" y1="142" x2="152" y2="154" stroke="#2a4888" stroke-width="0.7"/>
  <line x1="144" y1="154" x2="152" y2="142" stroke="#2a4888" stroke-width="0.7"/>
  <!-- Right coarse knob (other side of column) -->
  <ellipse cx="190" cy="148" rx="7" ry="11" fill="#0f2040" stroke="#2a4070" stroke-width="1.5" filter="url(#sh)"/>
  <ellipse cx="190" cy="148" rx="4.5" ry="7.5" fill="#1a3060"/>
  <line x1="190" y1="140" x2="190" y2="156" stroke="#2a4888" stroke-width="0.8"/>

  <!-- Fine focus knob (smaller, above coarse) -->
  <ellipse cx="148" cy="132" rx="5" ry="8" fill="#0f2040" stroke="#2a4070" stroke-width="1.2" filter="url(#sh)"/>
  <ellipse cx="148" cy="132" rx="3" ry="5" fill="#1a3060"/>
  <ellipse cx="190" cy="132" rx="5" ry="8" fill="#0f2040" stroke="#2a4070" stroke-width="1.2" filter="url(#sh)"/>
  <ellipse cx="190" cy="132" rx="3" ry="5" fill="#1a3060"/>

  <!-- ══ XY STAGE CONTROL KNOBS (front of stage) ══ -->
  <ellipse cx="60" cy="192" rx="9" ry="6" fill="#0f2040" stroke="#2a4070" stroke-width="1.2" filter="url(#sh)"/>
  <ellipse cx="60" cy="192" rx="6" ry="3.5" fill="#1a3060"/>
  <ellipse cx="80" cy="192" rx="7" ry="5" fill="#0f2040" stroke="#2a4070" stroke-width="1.2" filter="url(#sh)"/>
  <ellipse cx="80" cy="192" rx="4.5" ry="3" fill="#1a3060"/>

  <!-- ══ BRAND ACCENT DOT ══ -->
  <circle cx="210" cy="46" r="16" fill="#e94560" opacity="0.9" filter="url(#sh)"/>
  <circle cx="210" cy="46" r="10" fill="#ff7080" opacity="0.55"/>
  <circle cx="207" cy="43" r="3.5" fill="#ffb0b8" opacity="0.45"/>
</svg>
