<svg xmlns="http://www.w3.org/2000/svg" xmlns:xlink="http://www.w3.org/1999/xlink" viewBox="0 0 256 256">
  <defs>
    <radialGradient id="bg" cx="50%" cy="42%" r="58%">
      <stop offset="0%" stop-color="#1e2f5e"/>
      <stop offset="100%" stop-color="#0d1220"/>
    </radialGradient>
    <filter id="sh">
      <feDropShadow dx="1" dy="3" stdDeviation="4" flood-color="#000" flood-opacity="0.55"/>
    </filter>
    <filter id="glow">
      <feGaussianBlur stdDeviation="3" result="b"/>
      <feMerge><feMergeNode in="b"/><feMergeNode in="SourceGraphic"/></feMerge>
    </filter>
  </defs>

  <!-- Rounded square background -->
  <rect width="256" height="256" rx="44" fill="url(#bg)"/>

  <!-- Microscope from microscope-svgrepo-com.svg, scaled and centred.
       Original viewBox 508.568×508.568 → scale ≈ 0.41, translate to centre -->
  <g transform="translate(22, 10) scale(0.415)" filter="url(#sh)">

    <!-- ── Dark body (was #5C546A) → app dark blue ── -->
    <g fill="#0f2a50">
      <!-- Objective barrel ring -->
      <path d="M336.803,236.647l-16.969-16.969c-3.125-3.125-8.188-3.125-11.312,0l-32,32
        c-3.125,3.125-3.125,8.188,0,11.313l16.969,16.969c3.117,3.117,7.219,4.68,11.313,4.68c4.102,0,8.203-1.563,11.32-4.68
        l20.672-20.68c3.023-3.016,4.695-7.031,4.695-11.305C341.49,243.693,339.826,239.67,336.803,236.647z"/>
      <!-- Prism block lower half -->
      <path d="M243.561,253.061l38.617,15.586l21.5-21.5l-35.309-35.309l-27.965,27.965
        c-1.969,1.961-2.773,4.805-2.125,7.508C238.92,250.014,240.92,252.193,243.561,253.061z"/>
      <!-- Arm diagonal bar -->
      <path d="M157.079,77.962l-22.586,22.586c-0.391,0.391-1.024,0.391-1.414,0L77.807,45.276
        c-0.391-0.391-0.391-1.024,0-1.414l22.586-22.586c0.391-0.391,1.024-0.391,1.414,0l55.272,55.272
        C157.469,76.938,157.469,77.571,157.079,77.962z"/>
      <!-- Base arm -->
      <path d="M344.162,412.568h-34.75c-4.422,0-8-3.578-8-8s3.578-8,8-8h34.75
        c4.211,0,8.336-1.711,11.313-4.688l18.625-18.625c3.125-3.125,8.188-3.125,11.313,0s3.125,8.188,0,11.313l-18.625,18.625
        C360.834,409.154,352.584,412.568,344.162,412.568z"/>
      <!-- Main arm body -->
      <path d="M433.693,246.912l-22.625-22.625c-3.125-3.125-8.188-3.125-11.312,0L288.443,335.6
        c-2.453,2.453-3.047,6.211-1.469,9.297l15.313,29.938c1.164,2.281,3.352,3.867,5.883,4.266c0.414,0.063,0.828,0.094,1.242,0.094
        c2.102,0,4.148-0.828,5.656-2.344l118.625-118.625C436.818,255.1,436.818,250.037,433.693,246.912z"/>
      <!-- Lens turret dark circle -->
      <circle cx="173.413" cy="172.568" r="48"/>
      <!-- Z-adjustment knob -->
      <circle cx="277.1" cy="372.568" r="16"/>
      <!-- Handle lower -->
      <path d="M75.845,19.314L58.874,36.284c-3.124,3.124-3.124,8.189,0,11.313l11.314,11.314
        c3.124,3.124,8.189,3.124,11.313,0l16.971-16.971L75.845,19.314z"/>
    </g>

    <!-- ── Mid blue (was #868491) → app mid blue ── -->
    <g fill="#1a3a6a">
      <!-- Prism block upper -->
      <path d="M304.6,181.053c-2.742-0.656-5.594,0.141-7.563,2.117l-56.633,56.633
        c-1.969,1.961-2.773,4.805-2.125,7.508c0.641,2.703,2.641,4.883,5.281,5.75l38.617,15.586l43.312-43.312l-15.164-38.906
        C309.483,183.756,307.311,181.725,304.6,181.053z"/>
      <!-- Arc / FOV arm -->
      <path d="M184.634,212.566c-2.133,8.7-3.221,17.722-3.221,26.948c0,49.864,32.754,92.221,77.877,106.686
        l-13.839,45.972c-64.865-20.423-112.038-81.134-112.038-152.658c0-14.586,2.012-29.039,5.89-42.944L184.634,212.566z"/>
      <!-- Upper handle -->
      <path d="M449.693,326.912l-22.625-22.625c-3.125-3.125-8.188-3.125-11.313,0l-54.625,54.625
        c-3.125,3.125-3.125,8.188,0,11.313l22.625,22.625c1.563,1.563,3.609,2.344,5.656,2.344s4.094-0.781,5.656-2.344l54.625-54.625
        C452.818,335.1,452.818,330.037,449.693,326.912z"/>
      <!-- Head body + column -->
      <path d="M199.217,210.248l41.211,40.891c1.555,1.547,3.594,2.32,5.633,2.32
        c2.047,0,4.094-0.781,5.656-2.344l27.965-27.965L139.884,83.353l-16.815,16.813c-4.531,4.535-7.031,10.563-7.031,16.973
        c0,6.41,2.5,12.437,7.031,16.969l12.688,12.684c3.125,3.125,8.187,3.125,11.311,0.001l52.128,52.126
        c-0.007,0.007-0.018,0.01-0.025,0.017C196.061,202.068,196.076,207.139,199.217,210.248z"/>
      <!-- Base platform -->
      <path d="M333.412,452.568h-112c-17.648,0-32,14.352-32,32v16c0,4.422,3.578,8,8,8h160c4.422,0,8-3.578,8-8
        v-16C365.412,466.92,351.061,452.568,333.412,452.568z"/>
      <!-- Lens inner ring -->
      <circle cx="173.413" cy="172.568" r="24"/>
      <!-- Handle grip top -->
      <path d="M115.443,24.971L81.502,58.912c-3.124,3.124-8.19,3.124-11.314,0L58.874,47.598
        c-3.124-3.124-3.124-8.19,0-11.314L92.816,2.343c3.124-3.124,8.19-3.124,11.314,0l11.314,11.314
        C118.567,16.781,118.567,21.846,115.443,24.971z"/>
    </g>

    <!-- ── Lighter highlight (was #B4B6BC) → teal-tinted blue ── -->
    <g fill="#2a4a88">
      <!-- Eyepiece column -->
      <path d="M277.412,332.568c-22.055,0-40,17.945-40,40v88c0,4.422,3.578,8,8,8c4.422,0,8-3.578,8-8h48
        c0,4.422,3.578,8,8,8c4.422,0,8-3.578,8-8v-88C317.412,350.514,299.467,332.568,277.412,332.568z"/>
      <!-- Main optical tube / arm -->
      <path d="M308.342,183.162L190.951,66.221c-9.352-9.336-24.57-9.355-33.938,0.004l-33.945,33.941
        c-4.531,4.535-7.031,10.563-7.031,16.973c0,6.41,2.5,12.437,7.031,16.969l12.688,12.684c3.125,3.125,8.187,3.125,11.311,0.001
        l52.128,52.126c-0.007,0.007-0.018,0.01-0.025,0.017c-3.109,3.133-3.094,8.203,0.047,11.313l41.211,40.891
        c1.555,1.547,3.594,2.32,5.633,2.32c2.047,0,4.094-0.781,5.656-2.344l56.633-56.633c1.5-1.5,2.344-3.539,2.344-5.664
        S309.842,184.654,308.342,183.162z"/>
    </g>

    <!-- ── Teal accent on the objective lens ── -->
    <circle cx="173.413" cy="172.568" r="14" fill="#0f9b8e" opacity="0.9" filter="url(#glow)"/>
    <circle cx="173.413" cy="172.568" r="7"  fill="#40e8d4" opacity="0.6"/>
    <ellipse cx="169" cy="168" rx="3" ry="2" fill="#c0fff8" opacity="0.4"/>
  </g>

  <!-- ── Red brand accent ── -->
  <circle cx="214" cy="42" r="16" fill="#e94560" opacity="0.92" filter="url(#sh)"/>
  <circle cx="214" cy="42" r="10" fill="#ff7080" opacity="0.55"/>
  <circle cx="211" cy="39" r="3.5" fill="#ffb0b8" opacity="0.45"/>
</svg>
